<mxfile host="app.diagrams.net" modified="2023-10-25T17:51:05.617Z" agent="Mozilla/5.0 (Windows NT 10.0; Win64; x64) AppleWebKit/537.36 (KHTML, like Gecko) Chrome/116.0.5845.888 YaBrowser/23.9.2.888 Yowser/2.5 Safari/537.36" etag="iEW5E3BYf8I1Y1yqXbPB" version="22.0.7" type="github">
  <diagram name="Страница — 1" id="rMWo8EOmOEyrpXAp08WC">
    <mxGraphModel dx="1487" dy="720" grid="1" gridSize="10" guides="1" tooltips="1" connect="1" arrows="1" fold="1" page="1" pageScale="1" pageWidth="827" pageHeight="1169" math="0" shadow="0">
      <root>
        <mxCell id="0" />
        <mxCell id="1" parent="0" />
        <mxCell id="JS4y8zIoWQEnRXo5aAtw-1" value=":Client" style="shape=umlActor;verticalLabelPosition=bottom;verticalAlign=top;html=1;outlineConnect=0;" vertex="1" parent="1">
          <mxGeometry x="150" y="190" width="40" height="70" as="geometry" />
        </mxCell>
        <mxCell id="JS4y8zIoWQEnRXo5aAtw-2" value="" style="shape=umlBoundary;whiteSpace=wrap;html=1;" vertex="1" parent="1">
          <mxGeometry x="265" y="195" width="70" height="60" as="geometry" />
        </mxCell>
        <mxCell id="JS4y8zIoWQEnRXo5aAtw-3" value="" style="ellipse;shape=umlControl;whiteSpace=wrap;html=1;" vertex="1" parent="1">
          <mxGeometry x="413" y="185" width="66" height="70" as="geometry" />
        </mxCell>
        <mxCell id="JS4y8zIoWQEnRXo5aAtw-4" value=":FeedbackController" style="text;html=1;align=center;verticalAlign=middle;resizable=0;points=[];autosize=1;strokeColor=none;fillColor=none;" vertex="1" parent="1">
          <mxGeometry x="384" y="260" width="130" height="30" as="geometry" />
        </mxCell>
        <mxCell id="JS4y8zIoWQEnRXo5aAtw-5" value="" style="ellipse;shape=umlEntity;whiteSpace=wrap;html=1;" vertex="1" parent="1">
          <mxGeometry x="550" y="190" width="70" height="65" as="geometry" />
        </mxCell>
        <mxCell id="JS4y8zIoWQEnRXo5aAtw-6" value=":Feedback" style="text;html=1;align=center;verticalAlign=middle;resizable=0;points=[];autosize=1;strokeColor=none;fillColor=none;" vertex="1" parent="1">
          <mxGeometry x="545" y="260" width="80" height="30" as="geometry" />
        </mxCell>
        <mxCell id="JS4y8zIoWQEnRXo5aAtw-7" value=":SalonPage" style="text;html=1;align=center;verticalAlign=middle;resizable=0;points=[];autosize=1;strokeColor=none;fillColor=none;" vertex="1" parent="1">
          <mxGeometry x="255" y="260" width="90" height="30" as="geometry" />
        </mxCell>
        <mxCell id="JS4y8zIoWQEnRXo5aAtw-13" value="" style="endArrow=none;html=1;rounded=0;entryX=0.017;entryY=0.501;entryDx=0;entryDy=0;entryPerimeter=0;" edge="1" parent="1" source="JS4y8zIoWQEnRXo5aAtw-1" target="JS4y8zIoWQEnRXo5aAtw-2">
          <mxGeometry width="50" height="50" relative="1" as="geometry">
            <mxPoint x="370" y="250" as="sourcePoint" />
            <mxPoint x="260" y="220" as="targetPoint" />
          </mxGeometry>
        </mxCell>
        <mxCell id="JS4y8zIoWQEnRXo5aAtw-14" value="1: ChooseMaster" style="text;html=1;align=center;verticalAlign=middle;resizable=0;points=[];autosize=1;strokeColor=none;fillColor=none;" vertex="1" parent="1">
          <mxGeometry x="180" y="156" width="110" height="30" as="geometry" />
        </mxCell>
        <mxCell id="JS4y8zIoWQEnRXo5aAtw-16" value="" style="endArrow=open;endFill=1;endSize=12;html=1;rounded=0;" edge="1" parent="1">
          <mxGeometry width="160" relative="1" as="geometry">
            <mxPoint x="190" y="187" as="sourcePoint" />
            <mxPoint x="280" y="187" as="targetPoint" />
          </mxGeometry>
        </mxCell>
        <mxCell id="JS4y8zIoWQEnRXo5aAtw-17" value="" style="endArrow=open;endFill=1;endSize=12;html=1;rounded=0;" edge="1" parent="1">
          <mxGeometry width="160" relative="1" as="geometry">
            <mxPoint x="330" y="186" as="sourcePoint" />
            <mxPoint x="420" y="186" as="targetPoint" />
          </mxGeometry>
        </mxCell>
        <mxCell id="JS4y8zIoWQEnRXo5aAtw-18" value="2: WriteFeedback" style="text;html=1;align=center;verticalAlign=middle;resizable=0;points=[];autosize=1;strokeColor=none;fillColor=none;" vertex="1" parent="1">
          <mxGeometry x="315" y="157" width="120" height="30" as="geometry" />
        </mxCell>
        <mxCell id="JS4y8zIoWQEnRXo5aAtw-19" value="" style="endArrow=none;html=1;rounded=0;entryX=-0.004;entryY=0.574;entryDx=0;entryDy=0;entryPerimeter=0;" edge="1" parent="1" target="JS4y8zIoWQEnRXo5aAtw-3">
          <mxGeometry width="50" height="50" relative="1" as="geometry">
            <mxPoint x="335" y="224.8" as="sourcePoint" />
            <mxPoint x="411" y="224.8" as="targetPoint" />
          </mxGeometry>
        </mxCell>
        <mxCell id="JS4y8zIoWQEnRXo5aAtw-20" value="" style="endArrow=none;html=1;rounded=0;entryX=-0.001;entryY=0.537;entryDx=0;entryDy=0;entryPerimeter=0;" edge="1" parent="1" target="JS4y8zIoWQEnRXo5aAtw-5">
          <mxGeometry width="50" height="50" relative="1" as="geometry">
            <mxPoint x="479" y="224.71" as="sourcePoint" />
            <mxPoint x="557" y="224.91" as="targetPoint" />
          </mxGeometry>
        </mxCell>
        <mxCell id="JS4y8zIoWQEnRXo5aAtw-21" value="" style="endArrow=open;endFill=1;endSize=12;html=1;rounded=0;" edge="1" parent="1">
          <mxGeometry width="160" relative="1" as="geometry">
            <mxPoint x="470" y="185" as="sourcePoint" />
            <mxPoint x="560" y="185" as="targetPoint" />
          </mxGeometry>
        </mxCell>
        <mxCell id="JS4y8zIoWQEnRXo5aAtw-22" value="3: Create" style="text;html=1;align=center;verticalAlign=middle;resizable=0;points=[];autosize=1;strokeColor=none;fillColor=none;" vertex="1" parent="1">
          <mxGeometry x="485" y="157" width="70" height="30" as="geometry" />
        </mxCell>
        <mxCell id="JS4y8zIoWQEnRXo5aAtw-23" value="" style="shape=umlBoundary;whiteSpace=wrap;html=1;" vertex="1" parent="1">
          <mxGeometry x="265" y="310" width="70" height="60" as="geometry" />
        </mxCell>
        <mxCell id="JS4y8zIoWQEnRXo5aAtw-24" value=":MasterPage" style="text;html=1;align=center;verticalAlign=middle;resizable=0;points=[];autosize=1;strokeColor=none;fillColor=none;" vertex="1" parent="1">
          <mxGeometry x="255" y="370" width="90" height="30" as="geometry" />
        </mxCell>
        <mxCell id="JS4y8zIoWQEnRXo5aAtw-25" value="" style="endArrow=none;html=1;rounded=0;entryX=0.004;entryY=0.502;entryDx=0;entryDy=0;entryPerimeter=0;" edge="1" parent="1" source="JS4y8zIoWQEnRXo5aAtw-1" target="JS4y8zIoWQEnRXo5aAtw-23">
          <mxGeometry width="50" height="50" relative="1" as="geometry">
            <mxPoint x="200" y="235" as="sourcePoint" />
            <mxPoint x="276" y="235" as="targetPoint" />
          </mxGeometry>
        </mxCell>
        <mxCell id="JS4y8zIoWQEnRXo5aAtw-27" value="" style="endArrow=none;html=1;rounded=0;entryX=0.099;entryY=0.827;entryDx=0;entryDy=0;entryPerimeter=0;exitX=0.934;exitY=0.226;exitDx=0;exitDy=0;exitPerimeter=0;" edge="1" parent="1" source="JS4y8zIoWQEnRXo5aAtw-23" target="JS4y8zIoWQEnRXo5aAtw-3">
          <mxGeometry width="50" height="50" relative="1" as="geometry">
            <mxPoint x="345" y="234.8" as="sourcePoint" />
            <mxPoint x="423" y="235" as="targetPoint" />
          </mxGeometry>
        </mxCell>
        <mxCell id="JS4y8zIoWQEnRXo5aAtw-28" value="" style="endArrow=open;endFill=1;endSize=12;html=1;rounded=0;" edge="1" parent="1">
          <mxGeometry width="160" relative="1" as="geometry">
            <mxPoint x="410" y="290" as="sourcePoint" />
            <mxPoint x="360" y="340" as="targetPoint" />
          </mxGeometry>
        </mxCell>
        <mxCell id="JS4y8zIoWQEnRXo5aAtw-29" value="4: ShowFeedback" style="text;html=1;align=center;verticalAlign=middle;resizable=0;points=[];autosize=1;strokeColor=none;fillColor=none;rotation=-45;" vertex="1" parent="1">
          <mxGeometry x="335" y="310" width="120" height="30" as="geometry" />
        </mxCell>
        <mxCell id="JS4y8zIoWQEnRXo5aAtw-30" value="5:&amp;nbsp;" style="text;html=1;align=center;verticalAlign=middle;resizable=0;points=[];autosize=1;strokeColor=none;fillColor=none;rotation=50;" vertex="1" parent="1">
          <mxGeometry x="190" y="310" width="40" height="30" as="geometry" />
        </mxCell>
        <mxCell id="JS4y8zIoWQEnRXo5aAtw-32" value="" style="endArrow=open;endFill=1;endSize=12;html=1;rounded=0;" edge="1" parent="1">
          <mxGeometry width="160" relative="1" as="geometry">
            <mxPoint x="240" y="340" as="sourcePoint" />
            <mxPoint x="200" y="290" as="targetPoint" />
          </mxGeometry>
        </mxCell>
      </root>
    </mxGraphModel>
  </diagram>
</mxfile>
